File Name

Control Alt Delete 2008 BRRip H264 LKRG-Wrath.mp4

File Size
Format : MPEG-4
Format profile : Base Media
Codec ID : isom
File size : 1.75 GiB
Duration : 1h 33mn
Overall bit rate : 2 683 Kbps

Video
ID : 1
Format : AVC
Format/Info : Advanced Video Codec
Format profile : High@L4.1
Format settings, CABAC : Yes
Format settings, ReFrames : 3 frames
Codec ID : avc1
Codec ID/Info : Advanced Video Coding
Duration : 1h 33mn
Bit rate mode : Variable
Bit rate : 2 110 Kbps
Maximum bit rate : 14.2 Mbps
Width : 1 280 pixels
Height : 688 pixels
Display aspect ratio : 1.860
Frame rate mode : Constant
Frame rate : 23.976 fps
Resolution : 24 bits
Colorimetry : 4:2:0
Scan type : Progressive
Bits/(Pixel*Frame) : 0.100
Stream size : 1.37 GiB (78%)

Audio #1
ID : 2
Format : AAC
Format/Info : Advanced Audio Codec
Format version : Version 4
Format profile : LC
Format settings, SBR : No
Codec ID : 40
Duration : 1h 33mn
Bit rate mode : Variable
Bit rate : 128 Kbps
Maximum bit rate : 136 Kbps
Channel(s) : 2 channels
Channel positions : L R
Sampling rate : 48.0 KHz
Resolution : 16 bits
Stream size : 85.6 MiB (5%)

Audio #2
ID : 3
Format : AAC
Format/Info : Advanced Audio Codec
Format version : Version 4
Format profile : LC
Format settings, SBR : No
Codec ID : 40
Duration : 1h 33mn
Bit rate mode : Variable
Bit rate : 448 Kbps
Maximum bit rate : 459 Kbps
Channel(s) : 6 channels
Channel positions : Front: L C R, Rear: L R, LFE
Sampling rate : 48.0 KHz
Resolution : 16 bits
Stream size : 299 MiB (17%)

Text
ID : 4
Format : Timed text
Codec ID : tx3g
Duration : 1h 31mn
Bit rate mode : Variable
Bit rate : 72 bps
Stream size : 48.4 KiB (0%)

English SRT : External

Language : English

 
http://www.imdb.com/title/tt1031224/

Release Date: ----

Genre: Comedy | Drama 

Plot: A moody romantic comedy exploring fetishism, addiction and love in the information age.

Cast: 
Tyler Labine ... Lewis
Sonja Bennett ... Jane
Geoff Gustafson ... Gustafson
Keith Dallas ... Keith Mendleson
Alisen Down ... Angela
Laura Bertram ... Sarah
Kevin James ... Anderson
Bro Gilbert ... Paulson
Jonathon Young ... Sanderson
Carrie Ruscheinsky ... Ali (as Carrie Rushceinsky)
Khaira Ledeyo ... Co-worker #1
Adrian Mcmorran ... Co-worker #2 (as Adrian McMorran)
Hakan Coskuner ... Co-worker #3
Solomon Kennedy ... Team Member #1
Michael Ho ... Posse #1


Screenshots
 
http://postimg.com/image/17000/16744.jpg
 
http://postimg.com/image/17000/16746.jpg
 
http://postimg.com/image/17000/16747.jpg